<?xml version="1.0" encoding="iso-8859-1"?>
<!-- Generator: Adobe Illustrator 19.0.0, SVG Export Plug-In . SVG Version: 6.00 Build 0)  -->
<svg version="1.1" id="Capa_1" xmlns="http://www.w3.org/2000/svg" xmlns:xlink="http://www.w3.org/1999/xlink" x="0px" y="0px"
	 viewBox="0 0 512 512" style="enable-background:new 0 0 512 512;" xml:space="preserve">
<g>
	<g>
		<path d="M507.92,135.981L406.658,28.627c-2.745-3.316-6.894-5.429-11.537-5.429h-63.835c-8.267,0-14.97,6.702-14.97,14.97
			c0,35.757-27.057,64.847-60.316,64.847c-33.259,0-60.316-29.09-60.316-64.847c0-8.267-6.702-14.97-14.97-14.97h-62.688
			c-0.187,0-0.37,0.003-0.554,0.01c-4.304-0.155-8.485,1.556-11.44,4.688L4.08,135.981c-5.44,5.767-5.439,14.776,0,20.543
			l61.369,65.06c2.828,2.998,6.768,4.698,10.89,4.698c4.122,0,8.061-1.7,10.889-4.698l15.827-16.779v269.026
			c0,8.267,6.702,14.97,14.97,14.97h104.608v-37.198h-72.997c-8.267,0-14.97-6.702-14.97-14.97V169.175
			c0-8.267,6.702-14.97,14.97-14.97h217.85c8.267,0,14.97,6.702,14.97,14.97v267.459c0,8.267-6.702,14.97-14.97,14.97h-72.998
			v37.198h100.636c8.267,0,14.97-6.702,14.97-14.97V206.021l14.682,15.565c2.828,2.998,6.767,4.698,10.889,4.698
			c4.122,0,8.062-1.7,10.89-4.698l61.368-65.06C513.36,150.757,513.36,141.749,507.92,135.981z"/>
	</g>
</g>
<g>
	<g>
		<path d="M164.606,184.146v237.52h58.028v-19.96h-0.001h-21.956c-8.267,0-14.97-6.702-14.97-14.97v-53.891V220.05
			c0-8.267,6.702-14.97,14.97-14.97h115.766c8.267,0,14.97,6.702,14.97,14.97v112.795v53.891c0,8.267-6.702,14.97-14.97,14.97
			h-21.956v19.96h58.029v-237.52H164.606z"/>
	</g>
</g>
<g>
	<g>
		<rect x="215.644" y="235.025" width="85.826" height="82.853"/>
	</g>
</g>
<g>
	<g>
		<rect x="252.569" y="401.708" width="11.976" height="79.839"/>
	</g>
</g>
<g>
	<g>
		<rect x="215.644" y="347.817" width="85.826" height="23.952"/>
	</g>
</g>
<g>
</g>
<g>
</g>
<g>
</g>
<g>
</g>
<g>
</g>
<g>
</g>
<g>
</g>
<g>
</g>
<g>
</g>
<g>
</g>
<g>
</g>
<g>
</g>
<g>
</g>
<g>
</g>
<g>
</g>
</svg>
